<?xml version="1.0" encoding="UTF-8"?>
<svg width="512px" height="478px" viewBox="0 0 512 478" version="1.1" xmlns="http://www.w3.org/2000/svg" xmlns:xlink="http://www.w3.org/1999/xlink">
    <title>favicon</title>
    <defs></defs>
    <g id="Page-1" stroke="none" stroke-width="1" fill="none" fill-rule="evenodd">
        <g id="physics" fill="#000000">
            <path d="M512,238.934 C512,200.747 475.426,167.297 417.417,145.579 C418.432,139.452 419.311,133.402 419.917,127.488 C425.506,72.986 412.749,33.835 384,17.237 C374.511,11.759 363.622,8.977 351.659,8.977 C323.303,8.977 289.801,25.088 256.231,52.693 C229.044,30.259 201.788,15.436 176.956,10.683 C172.314,9.778 167.851,12.825 166.963,17.459 C166.084,22.084 169.113,26.555 173.738,27.434 C195.02,31.513 218.888,44.543 243.046,64.136 C224.768,80.844 206.668,100.787 189.559,123.391 C160.998,126.838 134.528,132.479 110.967,139.92 C106.572,112.007 106.837,87.107 112.298,67.481 C114.619,67.976 117.008,68.266 119.466,68.266 C138.291,68.266 153.599,52.957 153.599,34.133 C153.599,15.317 138.29,0 119.466,0 C100.642,0 85.333,15.318 85.333,34.134 C85.333,44.28 89.864,53.3 96.913,59.563 C89.608,82.91 88.917,112.478 94.438,145.63 C36.514,167.348 0,200.773 0,238.934 C0,276.054 34.765,309.718 94.447,332.033 C84.25,393.14 94.933,441.549 128,460.647 C137.489,466.125 148.378,468.899 160.35,468.899 C188.732,468.899 222.268,452.763 255.855,425.114 C283.324,447.796 310.588,462.499 335.061,467.192 C335.599,467.294 336.145,467.346 336.674,467.346 C340.685,467.346 344.269,464.504 345.054,460.425 C345.933,455.791 342.904,451.32 338.278,450.433 C317.431,446.439 293.435,433.52 268.97,413.731 C287.257,397.023 305.348,377.08 322.457,354.476 C351.035,351.02 377.523,345.388 401.083,337.938 C405.478,365.825 405.205,390.725 399.718,410.395 C397.388,409.892 394.999,409.601 392.533,409.601 C373.708,409.601 358.4,424.918 358.4,443.734 C358.4,462.558 373.709,477.867 392.533,477.867 C411.357,477.867 426.666,462.558 426.666,443.734 C426.666,433.596 422.143,424.585 415.103,418.322 C422.442,394.915 423.15,365.356 417.629,332.221 C475.52,310.495 512,277.078 512,238.934 Z M351.659,26.044 C360.593,26.044 368.606,28.058 375.467,32.017 C397.713,44.86 407.732,79.027 402.944,125.747 C402.466,130.372 401.724,135.142 400.981,139.904 C377.463,132.48 351.044,126.857 322.543,123.409 C305.502,100.796 287.514,80.734 269.295,64.026 C298.846,40.082 327.791,26.044 351.659,26.044 Z M397.764,157.142 C393.625,176.538 387.498,196.745 379.562,217.328 C373.469,204.639 366.796,191.899 359.475,179.201 C352.162,166.52 344.439,154.386 336.478,142.764 C358.519,146.262 379.153,151.143 397.764,157.142 Z M256.12,75.341 C270.627,88.499 285.065,103.893 298.991,121.105 C285.039,120.047 270.694,119.467 256,119.467 C241.331,119.467 227.012,120.047 213.086,121.097 C227.063,103.868 241.579,88.508 256.12,75.341 Z M175.522,142.763 C167.552,154.377 159.846,166.545 152.542,179.209 C145.186,191.949 138.505,204.681 132.446,217.31 C124.459,196.583 118.298,176.324 114.168,157.167 C132.804,151.152 153.455,146.271 175.522,142.763 Z M119.467,17.067 C128.879,17.067 136.534,24.721 136.534,34.134 C136.534,43.546 128.88,51.201 119.467,51.201 C110.063,51.201 102.4,43.547 102.4,34.134 C102.4,24.722 110.063,17.067 119.467,17.067 Z M17.067,238.934 C17.067,209.144 48.615,181.846 97.844,162.936 C103.203,187.077 111.566,212.694 122.676,238.823 C111.412,265.242 103.066,290.936 97.742,315.017 C47.283,295.553 17.067,267.708 17.067,238.934 Z M255.923,402.51 C242.449,390.341 229,376.219 215.996,360.458 C216.73,359.366 217.276,358.163 217.882,356.993 C230.648,357.872 243.439,358.401 256,358.401 C270.677,358.401 284.996,357.829 298.931,356.771 C284.962,373.991 270.447,389.351 255.923,402.51 Z M313.267,338.211 C294.852,340.242 275.661,341.334 256,341.334 C244.71,341.334 233.225,340.865 221.739,340.131 C221.091,321.878 206.149,307.201 187.734,307.201 C168.909,307.201 153.601,322.518 153.601,341.334 C153.601,360.159 168.91,375.467 187.734,375.467 C193.281,375.467 198.46,374.008 203.094,371.644 C216.09,387.379 229.428,401.502 242.808,413.773 C213.223,437.769 184.235,451.832 160.35,451.832 C151.407,451.832 143.403,449.827 136.533,445.859 C110.72,430.96 102.86,389.949 111.129,337.818 C115.788,339.286 120.584,340.694 125.499,342.033 C130.022,343.27 134.732,340.582 135.978,336.043 C137.215,331.495 134.536,326.81 129.979,325.573 C124.569,324.097 119.364,322.501 114.278,320.863 C118.383,301.74 124.475,281.439 132.463,260.601 C138.121,272.403 144.307,284.247 151.04,296.048 C152.61,298.804 155.494,300.349 158.455,300.349 C159.889,300.349 161.339,299.991 162.679,299.231 C166.775,296.901 168.2,291.688 165.862,287.592 C156.655,271.464 148.471,255.174 141.346,239.012 C148.813,222.005 157.474,204.802 167.321,187.744 C177.117,170.771 187.699,154.686 198.741,139.659 C217.164,137.637 236.339,136.536 256,136.536 C275.686,136.536 294.886,137.637 313.327,139.668 C324.344,154.704 334.899,170.78 344.696,187.736 C354.492,204.7 363.154,221.852 370.663,238.842 C363.102,255.943 354.501,273.137 344.688,290.144 C334.891,307.098 324.318,323.184 313.267,338.211 Z M204.8,341.334 C204.8,346.13 202.803,350.456 199.603,353.554 C199.56,353.588 199.509,353.597 199.466,353.631 C199.415,353.665 199.398,353.725 199.347,353.768 C196.301,356.618 192.23,358.402 187.733,358.402 C178.329,358.402 170.666,350.748 170.666,341.335 C170.666,331.923 178.329,324.268 187.733,324.268 C197.146,324.267 204.8,331.922 204.8,341.334 Z M336.486,335.105 C344.465,323.491 352.162,311.331 359.466,298.676 C366.779,286.004 373.409,273.204 379.528,260.413 C387.549,281.192 393.736,301.492 397.875,320.692 C379.23,326.708 358.571,331.597 336.486,335.105 Z M392.533,460.801 C383.129,460.801 375.466,453.147 375.466,443.734 C375.466,434.322 383.129,426.667 392.533,426.667 C401.945,426.667 409.6,434.321 409.6,443.734 C409.6,453.146 401.946,460.801 392.533,460.801 Z M414.242,314.906 C408.866,290.714 400.427,265.029 389.265,238.831 C400.256,212.932 408.619,187.315 414.003,162.876 C463.317,181.786 494.933,209.11 494.933,238.934 C494.933,268.707 463.428,295.996 414.242,314.906 Z" id="Shape"></path>
            <circle id="Oval" stroke="#000000" cx="256.5" cy="238.5" r="39.5"></circle>
        </g>
    </g>
</svg>